<svg width="12" height="12" viewBox="0 0 12 12" fill="none" xmlns="http://www.w3.org/2000/svg">
<path d="M0.512489 5.51429C0.482217 5.54481 0.456066 5.5782 0.432288 5.61271C0.424904 5.62334 0.41852 5.63422 0.412011 5.64522C0.396114 5.6711 0.381966 5.69774 0.369691 5.72524C0.364431 5.73699 0.358794 5.74862 0.354158 5.76049C0.339623 5.79849 0.327336 5.83724 0.319547 5.87699C0.319169 5.87936 0.319167 5.88186 0.318665 5.88411C0.311502 5.92198 0.308337 5.96034 0.307546 5.99908C0.307283 6.01133 0.30802 6.02357 0.308257 6.03582C0.3091 6.06518 0.311817 6.09466 0.316659 6.12402C0.318769 6.13689 0.320506 6.14964 0.323241 6.16263C0.330328 6.19573 0.340164 6.22834 0.352251 6.26044C0.354867 6.26756 0.356358 6.27505 0.35935 6.28205C0.359724 6.28267 0.359848 6.28355 0.360097 6.28429C0.375801 6.32226 0.395381 6.35761 0.416837 6.39132C0.422949 6.40093 0.430062 6.41005 0.436675 6.41941C0.455889 6.44663 0.476854 6.47235 0.499445 6.49644C0.504313 6.50156 0.507555 6.50756 0.512548 6.51255L5.48792 11.4879C5.76365 11.7637 6.21124 11.7632 6.48756 11.4869C6.76388 11.2105 6.76435 10.7629 6.48862 10.4872L2.71865 6.71724L10.9996 6.7079C11.39 6.70749 11.7068 6.39064 11.7073 6.00028C11.7075 5.8051 11.6284 5.6285 11.5007 5.50081C11.3731 5.37312 11.1962 5.29408 11.0011 5.29442L2.71404 5.30364L6.49947 1.49773C6.77466 1.22104 6.77427 0.774579 6.49916 0.499473C6.49879 0.499098 6.49829 0.4986 6.49779 0.498101C6.22131 0.223121 5.77372 0.224847 5.49815 0.501915L0.512489 5.51429Z" fill="black"/>
</svg>
