<svg width="64" height="60" viewBox="0 0 64 60" fill="none" xmlns="http://www.w3.org/2000/svg">
<g opacity="0.2">
<path d="M44.0378 17.4284C44.6127 18.0004 44.3917 19.3143 44.1123 20.8151C43.8325 22.3152 42.9539 24.3015 42.7037 24.5235C42.4535 24.745 41.7585 24.4668 41.7585 24.4668C41.7585 24.4668 41.254 27.3704 39.1455 29.9827C39.0872 30.055 39.0277 30.1272 38.9667 30.1991C38.9118 30.2635 38.8564 30.3279 38.7997 30.3919C38.6802 30.5268 38.5562 30.6601 38.4275 30.7919C38.3488 30.8726 38.2684 30.9531 38.1862 31.0322C35.2657 33.8441 32.8959 34.6032 31.0523 34.4929C29.2838 34.3869 26.0605 33.0601 24.3854 30.022C24.314 29.8928 24.2455 29.7604 24.18 29.6249C24.1629 29.5896 24.146 29.5541 24.1291 29.5191C24.085 29.4266 24.0416 29.3351 23.9992 29.2442C23.9439 29.1258 23.8899 29.0088 23.8372 28.8931C22.5078 25.9648 22.1002 23.9535 22.1002 23.9535C22.1002 23.9535 21.3154 24.3808 20.9963 24.1717C20.6765 23.9635 20.4579 22.8595 19.9446 21.9284C19.4311 20.9967 18.875 18.4033 19.2625 17.4785C19.6497 16.5532 20.4418 16.0054 21.0715 16.5778C20.6522 15.6653 19.3905 12.5082 19.5655 11.0012C19.7405 9.4948 19.6593 5.31778 22.0359 3.65875C24.4125 1.99972 25.9159 0.667366 28.4035 1.90639C28.4035 1.90639 31.577 -1.17487 35.7466 0.497204C39.9164 2.16887 42.801 3.90615 43.6577 6.23319C44.5146 8.55982 44.6103 11.8092 44.0701 13.6969C43.5382 15.5554 43.0137 17.3102 42.9976 17.3648C43.0272 17.3345 43.4811 16.8745 44.0378 17.4284Z" fill="#999999"/>
<path d="M63.5395 59.9988H0C0 59.9988 2.12914 49.5585 3.07513 46.9362C3.85548 44.7753 4.86056 43.6956 6.16982 42.8065C8.0777 41.9603 11.6206 40.5315 14.162 39.504C14.957 39.2569 15.6623 39.056 16.1817 38.9303C18.3108 38.4153 20.9791 36.9937 22.8531 35.6535C24.2975 34.6205 24.3042 31.7392 24.3928 30.0159C26.0664 33.0527 29.2868 34.3791 31.0537 34.485C32.8955 34.5952 35.2633 33.8364 38.1811 31.0257C38.2632 30.9466 38.3435 30.8662 38.4221 30.7855C38.5507 30.6537 38.6746 30.5205 38.794 30.3856C38.8506 30.3216 38.906 30.2573 38.9608 30.1929C39.0218 30.121 39.0813 30.0489 39.1395 29.9766C39.2009 31.6849 39.0568 34.5414 40.6864 35.6535C42.5902 36.9525 45.2287 38.4153 47.3578 38.9303C47.8772 39.056 48.5825 39.2569 49.3775 39.504C51.9189 40.5315 55.4618 41.9603 57.3697 42.8065C58.6789 43.6956 59.684 44.7753 60.4644 46.9362C61.4104 49.5585 63.5395 59.9988 63.5395 59.9988Z" fill="#999999"/>
</g>
</svg>
