<svg width="193" height="34" viewBox="0 0 193 34" fill="none" xmlns="http://www.w3.org/2000/svg">
<path d="M18.1273 2.80295C16.4277 1.83795 14.4512 1.37817 12.2464 1.37817H0V33.5401H7.35109V22.9727H12.2464C14.4523 22.9727 16.4277 22.4675 18.1273 21.5025C19.8268 20.5375 21.1597 19.2512 22.1247 17.5971C23.0897 15.9895 23.5494 14.1514 23.5494 12.176C23.5494 10.2006 23.0897 8.36251 22.1247 6.70839C21.1597 5.09969 19.8279 3.76795 18.1273 2.80295ZM14.5442 14.794C13.8097 15.4832 12.8447 15.851 11.6957 15.851H7.35109V8.49991H11.6947C12.8436 8.49991 13.8086 8.86773 14.5431 9.55686C15.2788 10.246 15.6455 11.119 15.6455 12.176C15.6466 13.2319 15.2788 14.1049 14.5442 14.794Z" fill="black"/>
<path d="M26.902 33.5403H33.7944V18.8381H44.6875V12.4055H26.902V33.5403Z" fill="black"/>
<path d="M63.7538 13.4158C62.0542 12.4508 60.1696 11.9456 58.1023 11.9456H58.0103C55.9429 11.9456 54.0594 12.4508 52.3588 13.4158C50.6592 14.3808 49.2809 15.7125 48.3159 17.4132C47.3055 19.1127 46.8003 20.9508 46.8003 22.9727C46.8003 24.9947 47.3055 26.8316 48.3159 28.5323C49.2809 30.2319 50.6592 31.5647 52.3588 32.5297C54.0583 33.4947 55.9429 33.9999 58.0103 33.9999H58.1023C60.1696 33.9999 62.0531 33.4947 63.7538 32.5297C65.4533 31.5647 66.8316 30.2329 67.8431 28.5323C68.8081 26.8327 69.3133 24.9947 69.3133 22.9727C69.3133 20.9508 68.8081 19.1138 67.8431 17.4132C66.8327 15.7136 65.4544 14.3808 63.7538 13.4158ZM60.9973 25.8666C60.1707 26.6932 59.2057 27.1075 58.1023 27.1075H58.0103C56.8614 27.1075 55.8964 26.6943 55.1153 25.8666C54.3342 25.0856 53.921 24.1206 53.921 22.9716C53.921 21.8227 54.3342 20.8577 55.1153 20.0312C55.8964 19.2501 56.8614 18.8369 58.0103 18.8369H58.1023C59.2512 18.8369 60.2162 19.2501 60.9973 20.0312C61.7783 20.8577 62.1916 21.8227 62.1916 22.9716C62.1916 24.0751 61.7783 25.0401 60.9973 25.8666Z" fill="black"/>
<path d="M81.5803 2.43513C80.2021 3.12426 79.1451 4.13469 78.364 5.37556C77.5829 6.61643 77.2151 8.04013 77.2151 9.6023V12.4053H71.4716V18.8379H77.2151V33.5401H84.1064V18.8379H91.6208V12.4053H84.1064V9.87817C84.1064 9.28099 84.2903 8.82121 84.7036 8.40795C85.1168 7.99469 85.5766 7.81078 86.1738 7.81078H91.6208V1.37817H86.1284C84.4288 1.37817 82.9131 1.746 81.5803 2.43513Z" fill="black"/>
<path d="M105.251 12.4054H105.218V12.3718H94.5299V18.8412H98.0827V27.0729H94.5299V33.5423H108.719V27.0729H105.251V12.4054Z" fill="black"/>
<path d="M98.4504 7.81087C99.3235 8.72935 100.426 9.18913 101.667 9.18913C102.908 9.18913 104.01 8.72935 104.929 7.81087C105.802 6.93783 106.261 5.83543 106.261 4.59457C106.261 3.3537 105.802 2.2513 104.929 1.33282C104.01 0.459781 102.908 0 101.667 0C100.426 0 99.3235 0.459781 98.4504 1.33282C97.5319 2.2513 97.0721 3.35478 97.0721 4.59457C97.0721 5.83435 97.5319 6.93783 98.4504 7.81087Z" fill="black"/>
<path d="M121.939 1.37833V1.35669H111.251V7.82608H114.772V27.0698H111.29V33.5403H114.772H121.939H125.479V27.0698H121.939V1.37833Z" fill="black"/>
<path d="M133.184 13.7371C131.484 14.6102 130.152 15.851 129.187 17.4586C128.222 19.0663 127.762 20.8589 127.762 22.8797C127.762 24.9471 128.222 26.7852 129.187 28.3928C130.105 30.0004 131.438 31.2878 133.137 32.1608C134.837 33.0793 136.814 33.5391 139.018 33.5391H148.162V27.7956H138.789C137.824 27.7956 136.997 27.6117 136.308 27.2439C135.619 26.9226 135.067 26.4173 134.654 25.7282H147.473V20.2152H134.654C135.067 19.526 135.619 19.0208 136.308 18.653C136.997 18.3317 137.825 18.1478 138.789 18.1478H148.162V12.4043H139.065C136.86 12.4054 134.884 12.8652 133.184 13.7371Z" fill="black"/>
<path d="M152.481 33.5403H159.372V18.8381H170.266V12.4055H152.481V33.5403Z" fill="black"/>
<path d="M174.563 12.4055V33.5403H181.454V18.8381H192.349V12.4055H174.563Z" fill="black"/>
</svg>
