<svg width="26" height="28" viewBox="0 0 26 28" fill="none" xmlns="http://www.w3.org/2000/svg">
<path fill-rule="evenodd" clip-rule="evenodd" d="M4.28031 9.71975C5.43954 9.71975 6.59878 10.1656 7.31215 10.9682L16.9427 5.43949C16.8536 5.0828 16.7644 4.63694 16.7644 4.28025C16.7644 3.12102 17.2102 2.05096 18.0128 1.24841C18.8153 0.44586 19.8854 0 21.1338 0C22.293 0 23.3631 0.44586 24.1657 1.24841C24.9682 2.05096 25.4141 3.12102 25.4141 4.28025C25.4141 5.43949 24.9682 6.59873 24.1657 7.3121C23.3631 8.11465 22.293 8.64968 21.1338 8.64968C19.8854 8.64968 18.8153 8.11465 18.0128 7.40127L8.47139 12.9299C8.56056 13.2866 8.64973 13.6433 8.64973 14C8.64973 14.4459 8.56056 14.8025 8.47139 15.1592L17.8344 20.5987C18.637 19.7962 19.7071 19.3503 20.8663 19.3503C22.1147 19.3503 23.1848 19.7962 23.9873 20.5987C24.7007 21.4013 25.2357 22.4713 25.2357 23.6306C25.2357 24.879 24.7007 25.949 23.9873 26.6624C23.1848 27.465 22.1147 28 20.8663 28C19.7071 28 18.637 27.465 17.8344 26.6624C17.0319 25.949 16.586 24.879 16.586 23.6306C16.586 23.2739 16.6752 22.9172 16.7644 22.5605L7.31215 17.121C6.50961 17.8344 5.43954 18.3694 4.28031 18.3694C3.12107 18.3694 2.05101 17.8344 1.24846 17.0318C0.445913 16.3185 5.34058e-05 15.1592 5.34058e-05 14C5.34058e-05 12.8408 0.445913 11.7707 1.24846 10.9682C2.05101 10.1656 3.12107 9.71975 4.28031 9.71975Z" fill="black"/>
</svg>
