<svg width="80" height="26" viewBox="0 0 80 26" fill="none" xmlns="http://www.w3.org/2000/svg">
<path d="M78.0794 25.2969C79.1398 25.2969 80 24.4302 80 23.3602V2.84572C80 1.77607 79.1398 0.909237 78.0794 0.909237H1.921C0.859788 0.909237 0 1.77607 0 2.84572V23.3602C0 24.4302 0.859788 25.2969 1.921 25.2969H78.0794Z" fill="#BF211F"/>
<path d="M10.058 18.8627C10.0091 18.9076 9.89039 18.9297 9.70054 18.9297H7.33767C7.08281 18.9297 6.98022 18.8185 7.03299 18.5964L8.94166 10.4411C9.03555 10.0415 9.18229 9.65057 9.38346 9.26726C9.58371 8.88493 9.84241 8.54674 10.1615 8.2526C10.4797 7.95839 10.8649 7.72171 11.318 7.54449C11.7694 7.36711 12.2896 7.27799 12.877 7.27799H17.9382C18.0714 7.27799 18.1528 7.29818 18.1826 7.33755C18.2113 7.37582 18.2046 7.48887 18.1606 7.67766L17.7208 9.55854C17.6862 9.70327 17.6421 9.79998 17.5856 9.84981C17.5291 9.89966 17.44 9.92461 17.3183 9.92461H13.2076C12.9852 9.92461 12.8004 9.95525 12.6538 10.0166C12.5053 10.0769 12.3874 10.1517 12.3012 10.2409C12.2139 10.3299 12.145 10.4296 12.0971 10.5408C12.0492 10.6518 12.0118 10.763 11.9859 10.8733L11.7453 11.9052H16.1225C16.2556 11.9052 16.3362 11.9282 16.3649 11.9713C16.3937 12.0164 16.3849 12.1333 16.3409 12.3211L15.9356 14.0524C15.8762 14.3075 15.7411 14.4359 15.5303 14.4359H11.1532L10.1788 18.5964C10.1471 18.7295 10.1069 18.8185 10.058 18.8627Z" fill="white"/>
<path d="M24.8417 13.1044C24.9326 12.6722 24.993 12.2583 25.0237 11.8645C25.0554 11.4707 25.0323 11.1296 24.9557 10.8402C24.879 10.5518 24.7323 10.3228 24.5177 10.1503C24.3031 9.97873 24.0012 9.89155 23.6134 9.89155C23.2913 9.89155 22.9884 9.97496 22.7058 10.1416C22.4232 10.3084 22.1702 10.5336 21.9487 10.8162C21.7266 11.0989 21.5339 11.4295 21.3681 11.8061C21.2014 12.1836 21.0702 12.5774 20.9744 12.9884C20.8555 13.4992 20.7808 13.9592 20.7511 14.3691C20.7223 14.7803 20.7511 15.1271 20.8411 15.4097C20.9293 15.6935 21.0836 15.9118 21.302 16.0673C21.5214 16.2235 21.8195 16.3008 22.197 16.3008C22.563 16.3008 22.8878 16.2147 23.1723 16.0423C23.4571 15.8706 23.7051 15.6378 23.9178 15.3437C24.1316 15.0494 24.3136 14.7084 24.465 14.3204C24.6174 13.9313 24.743 13.527 24.8417 13.1044ZM28.1589 13.0881C27.9404 14.0204 27.6433 14.8578 27.2698 15.6013C26.8961 16.3451 26.4351 16.9785 25.886 17.4987C25.3369 18.0199 24.6903 18.4204 23.9495 18.6974C23.2071 18.9742 22.3647 19.1133 21.4218 19.1133C20.5231 19.1133 19.7737 18.9771 19.1777 18.706C18.5817 18.4338 18.1332 18.0399 17.8324 17.5244C17.5315 17.0081 17.3648 16.3775 17.3342 15.634C17.3025 14.8914 17.3955 14.054 17.614 13.1206C17.8267 12.2114 18.1352 11.3844 18.5367 10.6419C18.9381 9.89824 19.4192 9.26198 19.9807 8.73502C20.5422 8.20798 21.1842 7.80271 21.9048 7.51996C22.6254 7.2374 23.4187 7.09643 24.284 7.09643C25.1836 7.09643 25.9302 7.2374 26.5232 7.51996C27.1173 7.80271 27.5725 8.20504 27.8896 8.72632C28.205 9.24858 28.3821 9.87908 28.4205 10.616C28.4578 11.3548 28.3716 12.1778 28.1589 13.0881Z" fill="white"/>
<path d="M47.5518 15.1352C47.6273 14.8133 47.5919 14.5498 47.4474 14.3447C47.3027 14.1398 47.0477 14.0361 46.6837 14.0361H44.7309L44.2202 16.217H46.1728C46.3943 16.217 46.584 16.1835 46.7439 16.1173C46.9022 16.0503 47.0381 15.9611 47.1532 15.851C47.2673 15.7399 47.3543 15.6238 47.4176 15.5013C47.4778 15.3786 47.5239 15.257 47.5518 15.1352ZM45.3066 11.5736H47.0439C47.2632 11.5736 47.4819 11.5172 47.6955 11.4068C47.9073 11.2957 48.052 11.0792 48.1275 10.7573C48.1871 10.5023 48.1573 10.3079 48.0404 10.1747C47.9225 10.0414 47.7366 9.97536 47.4838 9.97536H45.6814L45.3066 11.5736ZM49.6836 12.5721C49.9626 12.7043 50.1879 12.8739 50.3553 13.0789C50.523 13.2849 50.6476 13.512 50.729 13.7621C50.8086 14.0113 50.847 14.273 50.844 14.5441C50.8422 14.8163 50.8105 15.0844 50.7473 15.3508C50.6227 15.8837 50.4061 16.3694 50.0987 16.8083C49.791 17.2461 49.4165 17.6236 48.9757 17.94C48.5368 18.2561 48.049 18.5005 47.5154 18.6719C46.9806 18.8444 46.4249 18.9297 45.8482 18.9297H41.5209C41.0657 18.9297 40.7917 18.8444 40.6986 18.6719C40.6067 18.5005 40.6056 18.2197 40.6959 17.8315L42.9094 8.37708C42.9945 8.01107 43.1257 7.73696 43.3021 7.55405C43.4775 7.36997 43.7938 7.2781 44.2479 7.2781H48.576C49.0743 7.2781 49.5286 7.33455 49.9347 7.44466C50.342 7.5559 50.6774 7.73402 50.9417 7.9775C51.2063 8.22271 51.3892 8.53327 51.49 8.90981C51.5897 9.28737 51.5781 9.74254 51.4524 10.2744C51.3521 10.7074 51.1375 11.1261 50.8086 11.5315C50.482 11.9368 50.1139 12.2501 49.7078 12.4724L49.6836 12.5721Z" fill="white"/>
<path d="M59.6119 18.9297H54.4684C53.8014 18.9297 53.2838 18.8349 52.9122 18.647C52.5405 18.4573 52.2701 18.2119 52.1035 17.9062C51.9356 17.6005 51.8524 17.2594 51.8516 16.882C51.8505 16.5044 51.8947 16.1326 51.9798 15.7666L53.2265 10.441C53.3202 10.0414 53.4669 9.6505 53.668 9.26726C53.8685 8.88493 54.1281 8.54665 54.4461 8.25245C54.7645 7.95831 55.1504 7.72163 55.6028 7.54432C56.0541 7.36703 56.5744 7.2779 57.1628 7.2779H62.0726C62.2068 7.2779 62.2872 7.29801 62.3168 7.33738C62.3476 7.37573 62.3389 7.48971 62.296 7.67748L61.8571 9.55938C61.8226 9.70318 61.7765 9.79998 61.7199 9.84974C61.6644 9.89957 61.5752 9.92444 61.4536 9.92444H57.4923C57.27 9.92444 57.0841 9.95519 56.9385 10.0165C56.7899 10.0769 56.6731 10.1517 56.586 10.2417C56.4979 10.3298 56.4306 10.4295 56.3819 10.5407C56.3339 10.6517 56.2974 10.7629 56.2706 10.8732L56.1066 11.5726H60.5692C60.7023 11.5726 60.7827 11.5956 60.8117 11.6387C60.8393 11.6838 60.8316 11.8007 60.7868 11.9894L60.3822 13.7199C60.322 13.9747 60.1869 14.1023 59.9759 14.1023H55.5146L55.2233 15.3508C55.1735 15.5625 55.1589 15.7293 55.1812 15.851C55.2023 15.9727 55.2492 16.0637 55.3249 16.125C55.3997 16.1853 55.4964 16.2247 55.6135 16.2419C55.7321 16.2583 55.8635 16.2657 56.0073 16.2657H60.2356C60.3687 16.2657 60.4493 16.2861 60.48 16.3253C60.5098 16.3635 60.5029 16.4776 60.459 16.6655L60.0182 18.5474C59.9588 18.8021 59.8218 18.9297 59.6119 18.9297Z" fill="white"/>
<path d="M72.0741 9.92463H69.2283L67.2016 18.5801C67.1709 18.7133 67.1297 18.8052 67.0798 18.855C67.0272 18.9048 66.9085 18.9297 66.7198 18.9297H64.3558C64.1009 18.9297 64.0012 18.8129 64.0569 18.5801L66.0824 9.92463H63.3016C63.0687 9.92463 62.9817 9.79724 63.0419 9.54231L63.4772 7.67768C63.5222 7.48889 63.573 7.37593 63.6333 7.33656C63.6918 7.29728 63.7885 7.27809 63.9208 7.27809H72.6941C72.8262 7.27809 72.9134 7.29728 72.9538 7.33656C72.9949 7.37593 72.993 7.48889 72.9488 7.67768L72.5129 9.54231C72.4525 9.79724 72.3069 9.92463 72.0741 9.92463Z" fill="white"/>
<path d="M32.8482 12.622L31.4254 18.58C31.3947 18.7132 31.3534 18.8051 31.3025 18.8549C31.2509 18.9047 31.1321 18.9297 30.9434 18.9297H28.5805C28.3245 18.9297 28.225 18.8138 28.2805 18.58L30.6645 8.59457C30.789 8.07338 30.9578 7.72263 31.1733 7.54541C31.3862 7.36819 31.7271 7.27899 32.1927 7.27899H33.0581C33.2249 7.27899 33.3677 7.28763 33.4854 7.30386C33.6033 7.32112 33.7088 7.35371 33.8016 7.40455C33.8955 7.45437 33.9809 7.52907 34.0565 7.62875C34.1333 7.72932 34.2118 7.86249 34.2941 8.02831L35.8243 11.59L36.6379 13.6203H36.7548L38.1844 7.62875C38.2162 7.49558 38.2573 7.40455 38.3081 7.35371C38.359 7.30386 38.4786 7.27899 38.6664 7.27899H41.0304C41.2851 7.27899 41.3859 7.39591 41.3293 7.62875L38.9462 17.615C38.8562 17.9917 38.7039 18.306 38.4891 18.5551C38.2745 18.8051 37.9171 18.9297 37.4179 18.9297H36.5526C36.3965 18.9297 36.2576 18.9221 36.1339 18.9047C36.0093 18.8886 35.901 18.8549 35.8082 18.8051C35.7143 18.7553 35.6262 18.6797 35.5456 18.58C35.4641 18.4804 35.3875 18.3472 35.3155 18.1805L33.8035 14.6858L32.965 12.622H32.8482Z" fill="white"/>
</svg>
