<svg width="80" height="17" viewBox="0 0 80 17" fill="none" xmlns="http://www.w3.org/2000/svg">
<path fill-rule="evenodd" clip-rule="evenodd" d="M38.4978 16.3383H33.4521L34.3262 11.4259H39.372L38.4978 16.3383ZM8.26637 6.79423L7.82612 9.41992H10.7479L10.3973 11.3843C10.3423 11.6939 10.1295 12.7632 9.8414 13.0057C9.58273 13.1853 9.26873 13.2712 8.95273 13.2492H7.43746C6.58917 13.2492 5.84631 13.051 5.44277 12.1898C5.04689 11.2844 5.35066 9.45 5.49972 8.61118C5.65363 7.75007 5.94851 6.21463 6.63683 5.35354C6.98716 4.92936 7.4345 4.59228 7.94257 4.3697C8.45058 4.14713 9.00496 4.04535 9.56064 4.07262H15.2935L17.3073 0.883209H7.85478C7.43186 0.883209 5.35551 0.905013 3.74495 1.94252C1.45857 3.39986 0.751257 6.24793 0.314984 8.69917C-0.0465535 10.7302 -0.388298 13.5346 1.05947 15.0336C1.90495 15.9169 3.47874 16.3367 4.74877 16.3367H12.1237C12.7536 16.3416 13.3697 16.1568 13.889 15.807C14.4697 15.3696 14.8551 14.7286 14.9647 14.0183L15.7832 9.41954L15.8341 9.13008L16.1334 7.45236L16.2501 6.79423H8.26637ZM25.2764 6.79423L24.8365 9.41992H27.7579L27.4085 11.3839C27.3536 11.6935 27.1407 12.7627 26.8526 13.0054C26.594 13.1848 26.28 13.2709 25.964 13.2488H24.4475C23.5993 13.2488 22.8559 13.0506 22.4524 12.1895C22.0562 11.284 22.3607 9.44962 22.5098 8.61073C22.6628 7.74969 22.9582 6.21423 23.6465 5.35315C23.9968 4.92896 24.4442 4.59188 24.9522 4.36931C25.4603 4.14674 26.0147 4.04495 26.5703 4.07223H32.3036L34.3177 0.882812H24.8652C24.4419 0.882812 22.366 0.904617 20.755 1.94212C18.4682 3.39946 17.7613 6.24753 17.325 8.69878C16.9635 10.7302 16.6205 13.5354 18.0691 15.0347C18.9146 15.9181 20.4884 16.3379 21.7588 16.3379H29.1338C29.7636 16.3429 30.3798 16.1579 30.8991 15.8083C31.4795 15.3707 31.865 14.7297 31.9748 14.0195L32.7936 9.4207L32.8445 9.1313L33.1435 7.45314L33.2602 6.79503H25.2764V6.79423Z" fill="#FF7D02"/>
<path fill-rule="evenodd" clip-rule="evenodd" d="M52.9076 16.3328C52.2613 16.3328 51.6231 16.2885 51.1081 15.8032C50.5021 15.2085 50.6112 14.5889 50.7412 13.8606L52.6265 3.2624C52.7076 2.57066 53.0602 1.93714 53.6093 1.49623C54.1846 1.06941 54.8927 0.85092 55.6133 0.877775H65.7356L63.7223 4.06362H58.544C58.2545 4.05303 57.9687 4.12998 57.7252 4.28405C57.5045 4.47644 57.3689 4.74563 57.3471 5.03452L57.0336 6.7888H63.2626L62.7964 9.41447H56.5675L56.0233 12.4707C55.9929 12.5686 55.9881 12.6724 56.0092 12.7727C56.0304 12.8729 56.0769 12.9663 56.1445 13.0443C56.4147 13.2244 56.7451 13.2954 57.0672 13.2425H64.2979L63.7481 16.3321H52.9076V16.3328ZM67.7295 16.3328L69.9156 4.04658H66.1533L66.7167 0.875H79.9996L77.9891 4.04658H74.9501L72.7643 16.3313H67.7295V16.3328ZM49.361 7.61103C50.0468 6.9788 50.4759 6.12398 50.5687 5.205C50.7494 4.1889 50.8895 2.77597 50.1773 1.89229C49.4745 0.993934 48.1725 0.883722 47.079 0.876982H36.2082L35.7667 3.36429C35.7667 3.36706 35.7667 3.36945 35.7667 3.37262L34.6914 9.41447H43.7731C43.9782 9.38368 44.188 9.40848 44.3798 9.48616C44.5715 9.56384 44.7381 9.6915 44.8613 9.8553C44.9591 10.0491 44.9895 10.2689 44.9482 10.4813C44.9482 10.4813 44.6755 12.0274 44.6747 12.0318C44.6074 12.3671 44.4522 12.6793 44.2243 12.9377C44.1156 13.0479 43.7905 13.2469 42.8323 13.2469H41.3635L39.4245 16.3325H44.5143C45.8506 16.3325 47.0095 16.3325 48.204 15.251C49.3428 14.2348 49.5411 12.998 49.7176 12.0049C49.8869 11.0553 50.0408 10.0622 49.3577 9.26935C48.914 8.79883 48.3026 8.514 47.6506 8.47407L47.6664 8.38608C48.3094 8.34151 48.9133 8.06635 49.363 7.61302L49.361 7.61103ZM45.6139 5.01509C45.6139 5.0258 45.6078 5.03968 45.6054 5.05117L45.4995 5.63593L45.4854 5.71522C45.483 5.72593 45.481 5.73663 45.4778 5.74773C45.4308 5.96935 45.3419 6.18035 45.2156 6.36976C45.0516 6.53383 44.8504 6.65743 44.6284 6.73041C44.4064 6.80339 44.1699 6.82367 43.9383 6.78959H40.1945L40.3096 6.14259L40.4191 5.53008C40.4296 5.46942 40.4388 5.41115 40.4506 5.35247L40.5342 4.88427C40.5361 4.75807 40.5655 4.63374 40.6204 4.51957C40.6752 4.40539 40.7541 4.30402 40.8521 4.2222C41.0468 4.08094 41.289 4.01759 41.5295 4.04499H44.4037C44.7381 4.04499 45.2281 4.04499 45.4854 4.35462C45.6153 4.5503 45.6609 4.78848 45.6123 5.01708L45.6139 5.01509Z" fill="black"/>
</svg>
