<svg width="80" height="28" viewBox="0 0 80 28" fill="none" xmlns="http://www.w3.org/2000/svg">
<path d="M5.02324 27.8771L8.18604 16.5404H0L4.74417 0H58.4186L55.2559 11.1509H80L75.3489 27.8771H5.02324Z" fill="black"/>
<path d="M23.1669 6.03771L22.5157 8.17497H19.2599L19.9111 6.03771H23.1669ZM17.8646 13.2858L18.6087 10.591H22.1436C24.0041 10.591 25.1203 9.75467 25.6785 7.98911L25.9576 6.96696C26.6087 4.73679 25.5855 3.25 23.1669 3.25H7.91107L5.02734 13.1929H17.8646V13.2858Z" fill="#F8FF13"/>
<path d="M31.3646 6.03856H32.5739V9.19794H29.597L31.3646 6.03856ZM27.2715 13.2866L28.2017 11.614H32.5739V13.2866H35.4574V3.34375H29.876L24.0156 13.2866H27.2715Z" fill="#F8FF13"/>
<path d="M41.3005 6.03856H44.4635L43.9053 8.17579H40.6494L41.3005 6.03856ZM47.068 7.98995L47.347 7.06071C47.9984 4.7376 46.9749 3.34375 44.5563 3.34375H39.1611L36.2773 13.2866H39.2542L39.9984 10.5918H41.8587L42.696 13.2866H45.7656L44.8356 10.406C45.9518 10.0343 46.696 9.29087 47.068 7.98995Z" fill="#F8FF13"/>
<path d="M49.8753 13.2866L52.7588 3.34375H49.7822L46.8984 13.2866H49.8753Z" fill="#F8FF13"/>
<path d="M31.2738 14.6836L27.8318 18.6793L26.5295 14.6836H13.5993L10.8086 24.6265H23.6458L25.2272 19.144L26.2505 22.2104H28.1109L30.9017 18.9581L29.3201 24.6265H32.2969L35.0876 14.6836H31.2738Z" fill="#F8FF13"/>
<path d="M38.7884 20.5378L40.556 17.3784H41.7653V20.5378H38.7884ZM39.0677 14.6836L33.207 24.6265H36.556L37.4863 22.9538H41.8584V24.6265H44.7419V14.6836H39.0677Z" fill="#F8FF13"/>
<path d="M54.7803 17.5642L55.5244 14.6836H46.5013L45.6641 17.5642H48.9199L46.9665 24.6265H49.943L51.8965 17.5642H54.7803Z" fill="#F8FF13"/>
<path d="M58.7115 17.5642H63.2698L64.107 14.6836H59.2698C57.4094 14.6836 56.2929 15.5199 55.7349 17.2855L54.7115 20.9095C54.0605 23.2326 55.0836 24.6265 57.5022 24.6265H61.2232L62.0605 21.7458H57.5022L58.7115 17.5642Z" fill="#F8FF13"/>
<path d="M71.7288 14.6836L70.7054 18.3076H67.3568L68.3799 14.6836H65.4033L62.5195 24.6265H65.4961L66.5195 21.0954H69.9613L68.9382 24.6265H71.9147L74.7054 14.6836H71.7288Z" fill="#F8FF13"/>
</svg>
