<svg width="80" height="18" viewBox="0 0 80 18" fill="none" xmlns="http://www.w3.org/2000/svg">
<path d="M46.2772 5.59662C46.9921 2.72443 45.2487 0.347656 40.9781 0.347656H31.7219L28.2539 14.3951L30.2669 17.8505H36.8517C41.1662 17.8505 44.5088 15.8374 45.3679 12.3381C45.8006 10.5446 45.2989 9.29033 44.1701 8.66322V8.61932C45.2406 7.9259 45.9969 6.84087 46.2772 5.59662ZM40.6332 12.2252C40.4576 12.959 39.9622 13.7115 37.9115 13.7115H33.7098L34.4435 10.7013H38.6264C40.652 10.6951 40.8025 11.4664 40.6081 12.2252H40.6332ZM41.4735 5.69069C41.323 6.25509 40.8903 6.94492 39.1218 6.94492H35.3591L35.9862 4.49917H39.7489C41.5362 4.48662 41.624 5.06357 41.4735 5.69069Z" fill="#14A0FF"/>
<path d="M52.1025 11.0713H60.531L61.4905 6.93237H53.1185L53.7707 4.48662H62.0611L63.0206 0.347656H49.4122L45.0977 17.8442H60.5122L61.5218 13.7052H51.4817L52.1025 11.0713Z" fill="#14A0FF"/>
<path d="M64.2079 0.347656L63.2422 4.48662H68.2779L64.973 17.8442H70.2596L73.5708 4.48662H78.964L79.9987 0.347656H64.2079Z" fill="#14A0FF"/>
<path d="M5.53116 17.8442H0.200677L2.50846 8.50016L3.04151 7.08915L1.6305 8.50016L0.0627116 10.0868L0 5.42103L5.53116 0.347656H9.83945L5.53116 17.8442Z" fill="#002F5E"/>
<path d="M24.7925 10.5947L23.093 7.71627L31.3396 0.347656H23.6574L20.5219 3.35781L9.88598 13.1095L4.78125 17.8442H12.0495L17.5117 12.9715L19.3492 16.1071C19.9763 16.8972 20.8605 17.8567 24.6107 17.8567H29.0005L24.7988 10.5885L24.7925 10.5947Z" fill="#002F5E"/>
<path d="M19.9332 2.39044V2.35282C19.4627 1.69639 18.8348 1.16865 18.1073 0.818024C17.3797 0.467394 16.5758 0.305104 15.7692 0.346045H10.0938L14.3268 7.54534L19.9332 2.39044Z" fill="#002F5E"/>
</svg>
