<svg width="80" height="10" viewBox="0 0 80 10" fill="none" xmlns="http://www.w3.org/2000/svg">
<path fill-rule="evenodd" clip-rule="evenodd" d="M3.50902 8.11697H7.27537C7.3923 8.11697 7.48588 8.11697 7.60289 8.09338C7.74326 8.06978 7.90698 8.04619 8.04735 8.02266C8.28129 7.9519 8.51524 7.83403 8.72575 7.69257C8.9597 7.52753 9.12342 7.29177 9.19364 7.03243C9.31058 6.65521 9.19364 6.3723 8.88948 6.23084C8.44502 6.06581 8.00056 5.99508 7.53267 6.01865H4.07046L3.50902 8.11697ZM12.843 0.902621L12.4219 2.5058H5.05298L4.53833 4.36832H7.9772C9.94219 4.32117 12.071 4.91058 12.1646 6.70237C12.3284 9.10713 9.28722 9.72011 7.135 9.72011H0L2.45631 0.855469H2.62007L9.94219 0.879045L12.843 0.902621Z" fill="#2C74B3"/>
<path fill-rule="evenodd" clip-rule="evenodd" d="M24.7227 2.69427L25.1905 0.878906H35.6006L35.1327 2.69427H31.4365L29.4481 9.74357H26.407L28.3954 2.69427H24.7227Z" fill="#2C74B3"/>
<path fill-rule="evenodd" clip-rule="evenodd" d="M57.9297 2.74143L58.3976 0.878906H68.8077L68.3398 2.74143H64.667L62.6786 9.90859H59.6374L61.6259 2.74143H57.9297Z" fill="#2C74B3"/>
<path fill-rule="evenodd" clip-rule="evenodd" d="M43.6045 9.88459H38.5983C31.9545 10.2854 33.3815 1.42074 39.9551 0.949219H45.9906L45.4057 2.88247H40.9376C37.5455 2.48167 35.3933 7.92778 39.1129 7.92778H44.1191L43.6045 9.88459Z" fill="#2C74B3"/>
<path fill-rule="evenodd" clip-rule="evenodd" d="M22.1474 9.88459H17.1177C10.474 10.2854 11.8777 1.42074 18.4746 0.949219H24.4867L23.9253 2.88247H19.4571C18.1237 2.71744 17.0008 3.4483 16.3224 4.41492H23.5042L23.0363 6.32459H15.6674C15.6908 7.22049 16.2756 7.92778 17.6324 7.92778H22.6386L22.1474 9.88459Z" fill="#2C74B3"/>
<path fill-rule="evenodd" clip-rule="evenodd" d="M47.2337 0.902344H50.2515L48.7076 6.56064L54.7431 0.92592H57.6906L55.2109 9.88486H52.1932L53.7605 4.17943L47.842 9.88486H44.8008L47.2337 0.902344Z" fill="#2C74B3"/>
<path fill-rule="evenodd" clip-rule="evenodd" d="M69.5423 0.902344H72.5837L71.0395 6.56064L77.0519 0.92592H79.9992L77.5426 9.88486H74.5253L76.0925 4.17943L70.1506 9.88486H67.1094L69.5423 0.902344Z" fill="#2C74B3"/>
</svg>
